<?xml version="1.0" standalone="no"?>
<!DOCTYPE svg PUBLIC "-//W3C//DTD SVG 20010904//EN"
 "http://www.w3.org/TR/2001/REC-SVG-20010904/DTD/svg10.dtd">
<svg version="1.0" xmlns="http://www.w3.org/2000/svg"
 width="225.000000pt" height="218.000000pt" viewBox="0 0 225.000000 218.000000"
 preserveAspectRatio="xMidYMid meet">

<g transform="translate(0.000000,218.000000) scale(0.100000,-0.100000)"
fill="#000000" stroke="none">
<path d="M1126 1939 c-34 -27 -35 -71 -1 -104 38 -39 86 -30 113 22 18 32 15
51 -13 78 -30 30 -64 32 -99 4z"/>
<path d="M1014 1925 c-8 -20 4 -35 27 -35 14 0 19 7 19 25 0 18 -5 25 -20 25
-11 0 -23 -7 -26 -15z"/>
<path d="M1322 1913 c-25 -10 -43 -60 -31 -90 13 -35 25 -43 70 -43 44 0 69
25 69 68 0 54 -54 87 -108 65z"/>
<path d="M929 1891 c-29 -23 -20 -68 16 -77 34 -9 57 12 53 49 -4 39 -38 53
-69 28z"/>
<path d="M792 1884 c-26 -18 -30 -65 -6 -88 33 -34 94 -7 94 42 0 18 -42 62
-59 62 -4 0 -17 -7 -29 -16z"/>
<path d="M1551 1823 c-26 -18 -27 -35 -2 -57 34 -31 80 0 66 44 -8 24 -39 31
-64 13z"/>
<path d="M1011 1734 c-29 -36 -26 -60 9 -96 25 -24 36 -29 58 -24 35 9 62 41
62 75 0 67 -88 97 -129 45z"/>
<path d="M648 1706 c-10 -7 -21 -24 -26 -37 -27 -71 68 -128 122 -73 22 22 21
87 -2 107 -22 20 -70 22 -94 3z"/>
<path d="M832 1697 c-46 -48 -14 -121 52 -121 42 0 63 17 72 59 14 70 -75 114
-124 62z"/>
<path d="M1613 1713 c-7 -3 -13 -13 -13 -23 0 -19 17 -30 38 -23 6 3 12 13 12
23 0 19 -17 30 -37 23z"/>
<path d="M1310 1681 c0 -11 6 -21 13 -24 20 -7 37 4 37 24 0 14 -7 19 -25 19
-18 0 -25 -5 -25 -19z"/>
<path d="M1460 1658 c-30 -32 -26 -71 11 -102 35 -29 39 -30 72 -15 26 12 47
47 47 78 0 30 -38 61 -75 61 -22 0 -41 -8 -55 -22z"/>
<path d="M1727 1663 c-29 -33 -31 -68 -5 -96 35 -40 72 -44 102 -13 51 50 22
126 -47 126 -20 0 -41 -7 -50 -17z"/>
<path d="M1170 1648 c-36 -39 -23 -96 29 -118 44 -18 83 4 95 53 8 32 7 40
-14 62 -30 32 -81 34 -110 3z"/>
<path d="M450 1620 c-26 -26 -26 -81 -2 -103 25 -23 85 -22 105 1 23 25 22 85
-1 105 -25 23 -78 21 -102 -3z"/>
<path d="M1633 1603 c-16 -6 -17 -39 -2 -49 6 -3 18 1 27 10 14 14 14 18 2 30
-8 7 -21 12 -27 9z"/>
<path d="M1041 1568 c-16 -43 19 -73 57 -49 8 5 12 21 10 37 -2 23 -9 30 -31
32 -21 3 -29 -2 -36 -20z"/>
<path d="M1329 1554 c-21 -25 -17 -93 6 -110 70 -52 159 32 109 104 -19 28
-94 31 -115 6z"/>
<path d="M918 1549 c-24 -14 -23 -56 2 -69 42 -22 82 34 48 68 -14 14 -27 15
-50 1z"/>
<path d="M800 1496 c-6 -8 -10 -25 -8 -38 2 -18 10 -24 35 -26 28 -3 33 1 39
23 11 45 -37 75 -66 41z"/>
<path d="M1647 1482 c-27 -30 -22 -87 9 -111 15 -12 34 -21 44 -21 10 0 29 9
44 21 35 27 37 90 4 113 -30 22 -81 20 -101 -2z"/>
<path d="M540 1471 c0 -26 17 -36 35 -21 23 19 18 40 -10 40 -18 0 -25 -5 -25
-19z"/>
<path d="M1834 1446 c-3 -9 -3 -28 0 -42 5 -20 12 -25 33 -22 34 4 52 31 37
56 -15 23 -62 28 -70 8z"/>
<path d="M642 1427 c-31 -33 -29 -80 4 -106 53 -42 114 -13 114 54 0 68 -73
100 -118 52z"/>
<path d="M1492 1427 c-31 -33 -29 -80 4 -106 32 -25 56 -26 88 -5 43 27 41 87
-3 121 -25 20 -66 15 -89 -10z"/>
<path d="M340 1407 c-14 -7 -28 -27 -34 -45 -21 -73 76 -125 123 -66 11 15 21
39 21 54 0 49 -63 82 -110 57z"/>
<path d="M786 1365 c-8 -22 1 -35 25 -35 15 0 20 6 17 22 -4 27 -33 36 -42 13z"/>
<path d="M503 1335 c-49 -21 -59 -77 -20 -113 33 -31 80 -29 106 4 26 33 26
54 1 86 -25 32 -49 39 -87 23z"/>
<path d="M264 1179 c-19 -22 -13 -43 19 -63 12 -8 21 -5 36 8 26 23 26 38 3
59 -24 22 -35 21 -58 -4z"/>
<path d="M673 1144 c-3 -8 -1 -20 5 -26 16 -16 42 -2 42 22 0 24 -38 28 -47 4z"/>
<path d="M1485 1139 c-49 -28 -58 -70 -24 -113 41 -52 129 -19 129 49 0 49
-63 87 -105 64z"/>
<path d="M1922 1134 c-27 -19 -28 -36 -3 -58 40 -36 91 15 55 55 -21 23 -24
23 -52 3z"/>
<path d="M1644 1126 c-9 -23 -1 -48 19 -60 25 -16 52 4 52 40 0 25 -4 29 -33
32 -22 2 -34 -2 -38 -12z"/>
<path d="M1367 1124 c-4 -4 -7 -16 -7 -26 0 -14 6 -19 23 -16 14 2 22 10 22
23 0 20 -25 32 -38 19z"/>
<path d="M566 1099 c-66 -52 -1 -153 79 -123 28 11 46 59 35 90 -21 55 -69 69
-114 33z"/>
<path d="M375 1065 c-34 -33 -33 -77 1 -104 67 -53 148 14 108 90 -23 46 -72
52 -109 14z"/>
<path d="M1780 1075 c-15 -18 -6 -61 16 -69 24 -9 54 12 54 37 0 43 -44 63
-70 32z"/>
<path d="M294 1055 c-4 -9 -2 -21 4 -27 15 -15 44 -1 40 19 -4 23 -36 29 -44
8z"/>
<path d="M1332 1033 c-32 -6 -55 -54 -42 -89 22 -56 80 -71 118 -31 31 33 29
80 -4 106 -27 21 -30 22 -72 14z"/>
<path d="M1650 1033 c-53 -19 -67 -83 -27 -121 29 -27 78 -29 100 -4 20 22 23
95 5 109 -17 14 -60 22 -78 16z"/>
<path d="M1904 1008 c-22 -10 -44 -47 -44 -72 0 -7 9 -25 21 -40 15 -19 30
-26 55 -26 69 0 99 76 49 125 -26 27 -47 30 -81 13z"/>
<path d="M1487 963 c-11 -11 -8 -48 5 -61 32 -32 79 2 60 43 -11 24 -49 35
-65 18z"/>
<path d="M290 903 c-28 -36 -23 -80 12 -106 58 -43 135 17 108 84 -23 55 -85
67 -120 22z"/>
<path d="M480 903 c-28 -36 -23 -80 12 -106 58 -43 135 17 108 84 -23 55 -85
67 -120 22z"/>
<path d="M673 914 c-3 -8 -1 -20 5 -26 16 -16 42 -2 42 22 0 24 -38 28 -47 4z"/>
<path d="M1774 916 c-12 -32 0 -61 29 -64 21 -3 29 2 36 20 5 13 5 30 -1 41
-11 21 -56 23 -64 3z"/>
<path d="M1585 858 c-28 -16 -35 -28 -35 -65 0 -22 8 -38 26 -52 35 -28 65
-26 94 4 61 65 -8 157 -85 113z"/>
<path d="M642 830 c-29 -27 -29 -83 -2 -110 44 -44 120 -8 120 58 0 64 -72 95
-118 52z"/>
<path d="M1847 832 c-23 -25 -21 -78 3 -102 45 -45 120 -11 120 53 0 20 -8 41
-18 50 -25 23 -85 22 -105 -1z"/>
<path d="M417 742 c-38 -42 -10 -112 45 -112 30 0 68 38 68 68 0 52 -79 82
-113 44z"/>
<path d="M282 741 c-18 -11 -11 -51 11 -65 25 -16 52 4 52 40 0 24 -5 29 -25
32 -14 1 -31 -2 -38 -7z"/>
<path d="M1750 725 c0 -22 4 -26 23 -23 14 2 22 10 22 23 0 13 -8 21 -22 23
-19 3 -23 -1 -23 -23z"/>
<path d="M1410 690 c-40 -40 -16 -112 41 -125 34 -8 89 36 89 71 0 60 -88 96
-130 54z"/>
<path d="M836 679 c-34 -27 -35 -71 -1 -104 44 -45 109 -22 121 42 5 26 1 37
-19 57 -31 31 -65 33 -101 5z"/>
<path d="M1770 650 c-42 -42 -6 -130 53 -130 33 0 70 43 70 81 0 61 -80 92
-123 49z"/>
<path d="M1634 635 c-4 -9 -2 -21 4 -27 15 -15 44 -1 40 19 -4 23 -36 29 -44
8z"/>
<path d="M681 603 c-11 -10 -24 -32 -27 -50 -5 -26 -1 -37 19 -57 31 -31 65
-33 101 -5 34 27 35 71 1 104 -28 29 -64 32 -94 8z"/>
<path d="M1277 602 c-36 -39 -11 -102 39 -102 29 0 64 33 64 60 0 27 -35 60
-63 60 -13 0 -31 -8 -40 -18z"/>
<path d="M384 585 c-4 -9 -2 -21 4 -27 15 -15 44 -1 40 19 -4 23 -36 29 -44 8z"/>
<path d="M481 571 c-39 -39 -24 -99 29 -121 28 -11 34 -11 58 7 15 11 31 32
36 47 23 62 -75 115 -123 67z"/>
<path d="M1011 564 c-12 -15 -21 -35 -21 -46 0 -26 53 -78 80 -78 29 0 70 47
70 81 0 66 -88 95 -129 43z"/>
<path d="M835 515 c-48 -47 -19 -119 49 -119 65 0 96 65 56 117 -28 35 -72 36
-105 2z"/>
<path d="M1504 516 c-12 -49 43 -76 70 -33 15 24 -3 51 -37 55 -21 3 -28 -2
-33 -22z"/>
<path d="M1370 471 c0 -20 25 -35 41 -25 5 3 9 14 9 25 0 14 -7 19 -25 19 -18
0 -25 -5 -25 -19z"/>
<path d="M1150 467 c0 -23 22 -38 37 -26 21 18 15 39 -12 39 -14 0 -25 -6 -25
-13z"/>
<path d="M1617 462 c-10 -10 -17 -32 -17 -49 0 -61 85 -98 124 -54 21 23 24
85 6 106 -18 22 -93 20 -113 -3z"/>
<path d="M640 410 c-45 -45 -11 -120 53 -120 20 0 41 8 50 18 23 25 22 85 -1
105 -25 23 -78 21 -102 -3z"/>
<path d="M1410 410 c-45 -45 -11 -120 54 -120 37 0 76 36 76 70 0 10 -9 29
-21 44 -26 33 -79 36 -109 6z"/>
<path d="M1104 395 c-7 -18 3 -35 22 -35 20 0 30 30 13 41 -20 12 -29 11 -35
-6z"/>
<path d="M1220 393 c-67 -24 -39 -143 34 -143 35 0 79 55 71 89 -11 47 -57 71
-105 54z"/>
<path d="M889 321 c-26 -21 -19 -56 13 -67 29 -9 62 29 48 56 -14 27 -37 31
-61 11z"/>
<path d="M1015 295 c-33 -32 -31 -60 4 -96 36 -35 64 -37 96 -4 32 31 33 74 2
103 -31 29 -72 28 -102 -3z"/>
<path d="M760 275 c-19 -23 -4 -65 23 -65 29 0 47 18 47 46 0 33 -47 46 -70
19z"/>
<path d="M1364 249 c-8 -14 21 -43 35 -35 6 4 11 16 11 27 0 21 -34 27 -46 8z"/>
<path d="M1294 209 c-8 -14 21 -43 35 -35 6 4 11 16 11 27 0 21 -34 27 -46 8z"/>
<path d="M1190 195 c-16 -19 -5 -47 17 -43 22 4 29 43 9 51 -8 3 -20 -1 -26
-8z"/>
</g>
</svg>
